<?xml version="1.0" encoding="UTF-8" standalone="no"?>
<!-- Created with Inkscape (http://www.inkscape.org/) -->

<svg
   version="1.1"
   id="svg849"
   width="24"
   height="24"
   viewBox="0 0 24 24"
   sodipodi:docname="OmniLivePanel.svg"
   inkscape:version="1.2.2 (732a01da63, 2022-12-09)"
   xmlns:inkscape="http://www.inkscape.org/namespaces/inkscape"
   xmlns:sodipodi="http://sodipodi.sourceforge.net/DTD/sodipodi-0.dtd"
   xmlns="http://www.w3.org/2000/svg"
   xmlns:svg="http://www.w3.org/2000/svg">
  <defs
     id="defs853" />
  <sodipodi:namedview
     id="namedview851"
     pagecolor="#ffffff"
     bordercolor="#000000"
     borderopacity="0.25"
     inkscape:showpageshadow="2"
     inkscape:pageopacity="0.0"
     inkscape:pagecheckerboard="0"
     inkscape:deskcolor="#d1d1d1"
     showgrid="false"
     inkscape:zoom="15.07"
     inkscape:cx="25.514267"
     inkscape:cy="1.459854"
     inkscape:window-width="1350"
     inkscape:window-height="1205"
     inkscape:window-x="1998"
     inkscape:window-y="78"
     inkscape:window-maximized="0"
     inkscape:current-layer="g855" />
  <g
     inkscape:groupmode="layer"
     inkscape:label="Image"
     id="g855">
    <g
       id="g929"
       transform="translate(0.13271401,-0.06635702)">
      <path
         style="fill:#d0d0d0"
         d="M 2,12 V 2 H 12 22 V 12 22 H 12 2 Z m 19,1 V 5 H 17.889216 C 14.790271,5 14.786453,5.0066598 16.886204,6.75 22.475618,11.39067 19.300754,20 12,20 4.9314616,20 1.5527449,12.356346 6.4545455,7.4545455 L 8.9090909,5 H 5.9545455 3 v 8 8 h 9 9 z m -7.5,-0.513695 c 0,-2.7980616 -2.928959,-2.4879871 -3.331209,0.352659 -0.2568458,1.813817 0.07993,2.259784 1.5,1.986305 C 12.710761,14.624603 13.5,13.616526 13.5,12.486305 Z"
         id="path943" />
      <path
         style="fill:#cfe1af"
         d="M 5.9944238,17.265782 C 3.4122805,13.983118 3.8980172,9.4199342 7.1137959,6.75 9.1989639,5.0187673 9.1819517,5 5.5274506,5 3.0166012,5 1.9667964,4.5996107 2.25,3.75 2.5436508,2.8690476 5.4222222,2.5 12,2.5 c 6.577778,0 9.456349,0.3690476 9.75,1.25 C 22.033204,4.5996107 20.983399,5 18.472549,5 h -3.694117 l 2.310784,1.8711593 c 2.90571,2.3529011 3.142568,8.1102527 0.455796,11.0791027 -2.850625,3.149905 -8.8123565,2.796617 -11.5505882,-0.68448 z M 13.819551,12.75 C 13.643798,11.5125 12.825,10.5 12,10.5 c -0.825,0 -1.643798,1.0125 -1.819551,2.25 C 9.9345092,14.481695 10.353657,15 12,15 c 1.646343,0 2.065491,-0.518305 1.819551,-2.25 z M 4,3.5 C 4,3.225 3.775,3 3.5,3 3.225,3 3,3.225 3,3.5 3,3.775 3.225,4 3.5,4 3.775,4 4,3.775 4,3.5 Z"
         id="path941" />
      <path
         style="fill:#a3a3a2"
         d="M 6.9441173,18.155832 C 3.6480621,15.486849 3.8582468,10.378846 7.389097,7.341736 L 10.111527,5 H 5.9724304 C 3.1055972,5 1.9614071,4.6157786 2.25,3.75 2.8376511,1.9870466 21.162349,1.9870466 21.75,3.75 22.039432,4.6182953 20.878584,5 17.948475,5 h -4.218192 l 2.634858,2.0725801 C 18.295977,8.5913755 19,10.060953 19,12.57258 c 0,6.510373 -6.941144,9.724916 -12.0558827,5.583252 z m 7.5001097,-4.06559 C 15.400152,12.543523 13.880206,10 12,10 10.119794,10 8.5998477,12.543523 9.5557727,14.090242 9.8650164,14.590609 10.964919,15 12,15 c 1.035081,0 2.134984,-0.409391 2.444227,-0.909758 z M 4,3.5 C 4,3.225 3.775,3 3.5,3 3.225,3 3,3.225 3,3.5 3,3.775 3.225,4 3.5,4 3.775,4 4,3.775 4,3.5 Z"
         id="path939" />
      <path
         style="fill:#97b85c"
         d="M 7,18 C 3.7499905,14.749991 3.9900403,10.499691 7.6071418,7.25 10.719046,4.4541911 12.978217,4.4084248 16.365141,7.0725801 21.648717,11.228641 18.686933,20 12,20 10.333333,20 8.1111111,19.111111 7,18 Z m 7.444227,-3.909758 C 15.400152,12.543523 13.880206,10 12,10 10.119794,10 8.5998477,12.543523 9.5557727,14.090242 9.8650164,14.590609 10.964919,15 12,15 c 1.035081,0 2.134984,-0.409391 2.444227,-0.909758 z M 8.25,3.2649606 c 2.6125,-0.2059987 6.8875,-0.2059987 9.5,0 2.6125,0.2059986 0.475,0.3745429 -4.75,0.3745429 -5.225,0 -7.3625,-0.1685443 -4.75,-0.3745429 z"
         id="path937" />
      <path
         style="fill:#649a04"
         d="M 7.6348587,17.92742 C 5.7473896,16.442736 5,14.926599 5,12.582407 5,8.3890904 7.639392,6 12.272037,6 16.420727,6 19,8.7410388 19,13.149926 19,16.087869 15.002245,20 12,20 11.048345,20 9.084031,19.067339 7.6348587,17.92742 Z m 6.3545723,-3.414685 c 0.678876,-0.817996 0.973099,-2.167996 0.653829,-3 -0.752144,-1.9600563 -4.534376,-1.9600563 -5.2865205,0 C 8.7821174,13.010176 10.543298,16 12,16 c 0.415311,0 1.310555,-0.669269 1.989431,-1.487265 z M 8.25,3.2649606 c 2.6125,-0.2059987 6.8875,-0.2059987 9.5,0 2.6125,0.2059986 0.475,0.3745429 -4.75,0.3745429 -5.225,0 -7.3625,-0.1685443 -4.75,-0.3745429 z"
         id="path935" />
      <path
         style="fill:#4b4b4a"
         d="M 10,19.290565 C 2.4378722,16.510019 4.0364016,6 12.021439,6 c 3.672037,0 5.895774,3.5845598 4.119748,6.640841 -0.907765,1.562131 -1.085228,1.599133 -1.110778,0.231604 C 14.988437,10.626006 12.588471,8.8369519 10.626748,9.5897358 8.3781614,10.452599 8.5877484,14.202537 11,16.267972 c 3.173749,2.717448 2.631079,4.357718 -1,3.022593 z M 8.25,3.2649606 c 2.6125,-0.2059987 6.8875,-0.2059987 9.5,0 2.6125,0.2059986 0.475,0.3745429 -4.75,0.3745429 -5.225,0 -7.3625,-0.1685443 -4.75,-0.3745429 z"
         id="path933" />
      <path
         style="fill:#497300"
         d="M 10,19.290565 C 2.4378722,16.510019 4.0364016,6 12.021439,6 c 3.672037,0 5.895774,3.5845598 4.119748,6.640841 -0.907765,1.562131 -1.085228,1.599133 -1.110778,0.231604 C 14.988437,10.626006 12.588471,8.8369519 10.626748,9.5897358 8.3781614,10.452599 8.5877484,14.202537 11,16.267972 c 3.173749,2.717448 2.631079,4.357718 -1,3.022593 z"
         id="path931" />
    </g>
  </g>
</svg>
