<?xml version="1.0" encoding="UTF-8" standalone="no"?>
<!-- Created with Inkscape (http://www.inkscape.org/) -->

<svg
   version="1.1"
   id="svg767"
   width="34"
   height="33"
   viewBox="0 0 34 33"
   sodipodi:docname="SendToView.svg"
   inkscape:version="1.2.2 (732a01da63, 2022-12-09)"
   xmlns:inkscape="http://www.inkscape.org/namespaces/inkscape"
   xmlns:sodipodi="http://sodipodi.sourceforge.net/DTD/sodipodi-0.dtd"
   xmlns="http://www.w3.org/2000/svg"
   xmlns:svg="http://www.w3.org/2000/svg">
  <defs
     id="defs771" />
  <sodipodi:namedview
     id="namedview769"
     pagecolor="#ffffff"
     bordercolor="#000000"
     borderopacity="0.25"
     inkscape:showpageshadow="2"
     inkscape:pageopacity="0.0"
     inkscape:pagecheckerboard="0"
     inkscape:deskcolor="#d1d1d1"
     showgrid="false"
     inkscape:zoom="13.118507"
     inkscape:cx="30.758073"
     inkscape:cy="23.554509"
     inkscape:window-width="1556"
     inkscape:window-height="1205"
     inkscape:window-x="2160"
     inkscape:window-y="102"
     inkscape:window-maximized="0"
     inkscape:current-layer="g773" />
  <g
     inkscape:groupmode="layer"
     inkscape:label="Image"
     id="g773">
    <g
       id="g821"
       transform="translate(-0.22868453,0.68605372)">
      <path
         style="fill:#d7d7d7"
         d="M 3.4471551,28.722884 2.9353195,27.389062 3.2176598,14.944531 3.5,2.5 h 14 14 V 16 29.5 L 17.729495,29.778353 3.9589906,30.056706 Z"
         id="path835" />
      <path
         style="fill:#a5a5a5"
         d="M 3.6936256,29.360292 3,28.666667 3.1361821,16.083333 3.2723641,3.5 3.705733,5.75 4.1391019,8 H 5.0381662 5.9372304 L 5.3567395,6.4872651 4.7762487,4.9745301 6.020803,3.4749339 7.2653574,1.9753376 8.7022015,3.1678123 10.139046,4.360287 9.6631424,6.1801435 9.1872392,8 H 20.627451 32.067663 L 31.783832,18.75 31.5,29.5 17.943626,29.776959 4.3872513,30.053918 Z M 8,5.5 V 5 H 7.5 7 V 5.5 6 H 7.5 8 Z"
         id="path833" />
      <path
         style="fill:#909090"
         d="M 4,18.5 V 8 H 4.9063804 5.8127608 L 5.2929267,6.0121515 4.7730926,4.0243029 6.4874711,3.3664342 8.2018496,2.7085655 9.0437224,4.0707443 9.8855952,5.4329231 8.8203529,6.7164615 7.7551106,8 H 19.377555 31 V 18.5 29 H 17.5 4 Z M 8,5.5 V 5 H 7.5 7 V 5.5 6 H 7.5 8 Z"
         id="path831" />
      <path
         style="fill:#95b35f"
         d="M 4,19 V 9 H 17.5 31 V 19 29 H 17.5 4 Z M 5.3800024,6.5478871 4.8227744,5.0957741 5.4704042,4.0478871 6.118034,3 H 7.4520282 8.7860224 L 9.3148662,4.378145 9.8437101,5.7562899 8.721855,6.878145 7.6,8 H 6.7686152 5.9372304 Z M 8,5.5 V 5 H 7.5 7 V 5.5 6 H 7.5 8 Z"
         id="path829" />
      <path
         style="fill:#71af05"
         d="M 4,19 V 9 H 17.5 31 V 19 29 H 17.5 4 Z M 5.5700275,6.1133068 5.022021,5.2266137 6.3530198,4.1219828 7.6840185,3.0173519 8.3420093,3.6753426 9,4.3333333 V 5.6666667 7 H 7.559017 6.118034 Z M 8,5 V 4 H 7.559017 7.118034 L 6.5,5 5.881966,6 H 6.940983 8 Z"
         id="path827" />
      <path
         style="fill:#526530"
         d="M 4,19 V 9 H 17.5 31 V 19 29 H 17.5 4 Z M 19.022839,25.035277 20.5,25.969374 21.159649,25.984687 21.819297,26 l 1.191717,-7.065301 1.191718,-7.065301 -0.381286,-0.381285 -0.381285,-0.381285 -7.872103,4.639141 -7.8721027,4.639141 2.1675382,0.967183 2.1675385,0.967182 2.234484,-1.957191 L 16.5,18.405092 18.480835,16.952546 20.46167,15.5 17.230835,19.643904 14,23.787809 v 1.761083 1.761083 l 1.772839,-1.604397 1.77284,-1.604398 z M 6,6.5 V 6 H 6.5 7 V 6.5 7 H 6.5 6 Z m 2,-2 V 4 H 8.5 9 V 4.5 5 H 8.5 8 Z"
         id="path825" />
      <path
         style="fill:#464645"
         d="M 4,19 V 9 H 17.5 31 V 19 29 H 17.5 4 Z m 15.879127,6.5 h 2.559566 l 1.170081,-7 1.17008,-7 -0.45644,-0.48368 -0.456441,-0.48368 -4.182987,2.393538 L 15.5,15.319716 11.713123,17.695682 7.9262467,20.071648 8.5221403,21.035824 9.118034,22 h 2.126532 2.126532 L 15.935549,19.75 18.5,17.5 16.25,20.064451 14,22.628902 v 2.807994 2.807993 L 15.659781,26.872445 17.319562,25.5 Z"
         id="path823" />
    </g>
  </g>
</svg>
